<?xml version="1.0" encoding="UTF-8" standalone="no"?>
<svg
   xmlns:dc="http://purl.org/dc/elements/1.1/"
   xmlns:cc="http://creativecommons.org/ns#"
   xmlns:rdf="http://www.w3.org/1999/02/22-rdf-syntax-ns#"
   xmlns:svg="http://www.w3.org/2000/svg"
   xmlns="http://www.w3.org/2000/svg"
   style="isolation:isolate"
   viewBox="0 0 1000 1000"
   width="1000pt"
   height="1000pt"
   version="1.1"
   id="svg842">
  <metadata
     id="metadata846">
    <rdf:RDF>
      <cc:Work
         rdf:about="">
        <dc:format>image/svg+xml</dc:format>
        <dc:type
           rdf:resource="http://purl.org/dc/dcmitype/StillImage" />
        <dc:title></dc:title>
      </cc:Work>
    </rdf:RDF>
  </metadata>
  <defs
     id="defs836">
    <clipPath
       id="_clipPath_Sodx256MxtAfN5UHJedOc1VcxE8XULjI">
      <rect
         width="1000"
         height="1000"
         id="rect833" />
    </clipPath>
  </defs>
  <g
     clip-path="url(#_clipPath_Sodx256MxtAfN5UHJedOc1VcxE8XULjI)"
     id="g840">
    <path
       d="m 300.855,537.505 23.677,-29.772 -3.985,-3.751 -11.487,14.3 v 0 q -17.113,-8.674 -34.929,-8.674 v 0 0 q -17.817,0 -50.871,13.128 v 0 0 q 15.707,-14.769 27.311,-28.366 v 0 0 q 11.604,-13.596 19.574,-26.49 v 0 h 36.336 l 3.517,-7.97 -34.93,0.234 v 0 q 2.579,-3.985 4.22,-7.15 v 0 0 q 1.641,-3.165 2.813,-5.274 v 0 h 33.289 l 3.75,-8.44 -33.288,0.235 v 0 q 18.285,-36.102 35.633,-60.951 v 0 l -3.048,-3.048 v 0 q -19.457,10.315 -43.369,10.315 v 0 0 q -18.519,0 -40.086,-10.08 v 0 l -26.022,30.475 4.22,3.517 13.128,-14.769 v 0 q 14.3,6.329 29.537,6.329 v 0 0 q 19.223,0 50.168,-13.128 v 0 0 q -13.363,13.363 -24.615,26.139 v 0 0 q -11.253,12.776 -20.63,24.966 v 0 h -33.757 l -3.751,8.44 32.351,0.234 v 0 q -2.11,3.985 -3.751,7.033 v 0 0 q -1.641,3.047 -2.813,4.923 v 0 h -30.944 l -3.751,7.97 30.475,0.235 v 0 q -4.688,8.673 -9.142,17.113 v 0 0 q -4.454,8.439 -9.143,17.113 v 0 0 q -11.721,19.692 -23.208,30.944 v 0 l 3.048,4.22 v 0 q 24.849,-11.018 46.416,-11.018 v 0 0 q 25.318,0 48.057,11.018 z m 68.453,0 33.991,-22.974 -2.344,-3.282 -16.644,11.721 v 0 q -7.736,-4.219 -20.395,-10.549 v 0 -21.567 l 42.431,-35.164 -28.6,-36.57 v 0 q -8.908,5.391 -20.161,11.135 v 0 0 q -11.252,5.743 -25.318,11.838 v 0 l 0.938,2.579 v 0 q 7.736,0 7.736,8.908 v 0 48.292 2.579 0 q -0.469,12.424 -7.736,15.941 v 0 2.578 0 q 15.941,2.813 36.102,14.535 z m 18.519,-73.844 -23.911,19.457 v -50.167 z m 22.505,47.588 v 0 8.205 0 q 8.908,0.938 13.831,1.406 v 0 14.3 0 q 0,14.066 -4.454,19.927 v 0 0 q -2.579,3.282 -6.329,6.329 v 0 l 0.937,2.813 v 0 q 1.407,-0.703 2.345,-0.703 v 0 0 q 11.018,-4.454 16.644,-10.08 v 0 0 q 11.956,10.783 24.849,14.534 v 0 l 2.11,-4.22 v 0 q -12.659,-5.86 -12.659,-24.146 v 0 -11.252 0 q 9.377,3.282 16.878,9.143 v 0 0 q 10.315,-10.784 32.351,-22.271 v 0 -57.2 0 q 0,-19.223 -11.721,-30.241 v 0 0 q -3.751,-3.047 -6.564,-5.274 v 0 0 q -2.813,-2.227 -4.688,-3.634 v 0 l -26.256,25.084 v 0 q -0.235,-12.894 -8.674,-20.395 v 0 0 q -1.875,-1.641 -3.165,-2.696 v 0 0 q -1.289,-1.055 -2.227,-1.993 v 0 l -22.505,18.051 2.345,3.282 0.469,-0.469 h 0.234 v 0 q 1.875,-1.641 3.985,-1.641 v 0 0 q 4.689,0 5.861,8.439 v 0 0 q 0.234,0.704 0.234,2.345 v 0 60.482 0 q -5.626,0.937 -9.142,1.289 v 0 0 q -3.517,0.352 -4.689,0.586 z m 37.274,-1.875 v 0 -58.372 l 13.831,-12.894 v 0 q 7.736,5.157 9.611,8.674 v 0 0 q 2.345,3.751 2.345,12.893 v 0 58.372 0 Q 468.001,515 461.554,512.773 v 0 0 q -6.447,-2.227 -13.948,-3.399 z m 60.951,1.875 v 0 8.205 0 q 8.908,0.938 13.831,1.406 v 0 14.3 0 q 0,14.066 -4.454,19.927 v 0 0 q -2.579,3.282 -6.33,6.329 v 0 l 0.938,2.813 v 0 q 1.406,-0.703 2.344,-0.703 v 0 0 q 11.018,-4.454 16.644,-10.08 v 0 0 q 11.956,10.783 24.849,14.534 v 0 l 2.11,-4.22 v 0 Q 545.83,557.9 545.83,539.614 v 0 -11.252 0 q 9.377,3.282 16.879,9.143 v 0 0 q 10.315,-10.784 32.351,-22.271 v 0 -57.2 0 q 0,-19.223 -11.722,-30.241 v 0 0 q -3.75,-3.047 -6.564,-5.274 v 0 0 q -2.813,-2.227 -4.688,-3.634 v 0 l -26.256,25.084 v 0 q -0.234,-12.894 -8.674,-20.395 v 0 0 q -1.875,-1.641 -3.164,-2.696 v 0 0 q -1.29,-1.055 -2.227,-1.993 v 0 l -22.505,18.051 2.344,3.282 0.469,-0.469 h 0.234 v 0 q 1.876,-1.641 3.986,-1.641 v 0 0 q 4.688,0 5.86,8.439 v 0 0 q 0.235,0.704 0.235,2.345 v 0 60.482 0 q -5.627,0.937 -9.143,1.289 v 0 0 q -3.516,0.352 -4.688,0.586 z m 37.273,-1.875 v 0 -58.372 l 13.831,-12.894 v 0 q 7.736,5.157 9.612,8.674 v 0 0 q 2.344,3.751 2.344,12.893 v 0 58.372 0 Q 566.225,515 559.779,512.773 v 0 0 q -6.447,-2.227 -13.949,-3.399 z m 103.382,28.131 33.992,-22.974 -2.344,-3.282 -16.645,11.721 v 0 q -7.736,-4.219 -20.395,-10.549 v 0 -21.567 l 42.431,-35.164 -28.6,-36.57 v 0 q -8.908,5.391 -20.16,11.135 v 0 0 q -11.253,5.743 -25.318,11.838 v 0 l 0.937,2.579 v 0 q 7.737,0 7.737,8.908 v 0 48.292 2.579 0 q -0.469,12.424 -7.737,15.941 v 0 2.578 0 q 15.941,2.813 36.102,14.535 z m 18.52,-73.844 -23.912,19.457 v -50.167 z m 55.559,73.844 22.27,-18.051 -3.282,-3.751 -4.923,3.751 -11.487,-7.971 v -103.381 0 q 0,-9.846 0.938,-13.597 v 0 0 q 1.875,-7.267 6.798,-11.487 v 0 0 q 1.641,-1.172 2.696,-2.227 v 0 0 q 1.055,-1.055 1.758,-1.758 v 0 l -1.172,-3.517 v 0 q -16.41,4.22 -26.021,15.004 v 0 0 q -7.033,-6.564 -18.285,-11.487 v 0 l -1.172,3.751 v 0 q 7.267,3.75 9.846,10.783 v 0 0 q 1.641,4.22 1.641,15.003 v 0 92.13 0 q 0,12.893 -7.971,16.644 v 0 3.751 0 q 16.41,4.219 28.366,16.41 z m 48.995,0 24.38,-18.989 -2.813,-3.985 -7.033,5.861 -6.564,-5.861 v -72.438 l 7.971,-7.267 -19.458,-15.941 -19.457,15.238 8.205,7.033 v 60.013 0 q 0,12.659 -7.502,15.237 v 0 2.345 0 q 5.158,3.047 10.667,7.736 v 0 0 q 5.509,4.688 11.604,11.018 z M 776.505,372 l -5.626,26.725 5.626,0.468 19.458,-26.49 z"
       fill="#000000"
       id="path838" />
  </g>
</svg>
